<?xml version="1.0" encoding="UTF-8"?>
<svg xmlns="http://www.w3.org/2000/svg" xmlns:xlink="http://www.w3.org/1999/xlink" viewBox="0 0 100 100" width="100px" height="100px">
<g id="surface94784283">
<path style=" stroke:none;fill-rule:nonzero;fill:rgb(100%,100%,100%);fill-opacity:1;" d="M 30 83.332031 L 13.332031 83.332031 L 13.332031 33.332031 L 30 33.332031 Z M 21.671875 26.667969 C 17.058594 26.667969 13.332031 22.929688 13.332031 18.328125 C 13.332031 13.730469 17.066406 10 21.671875 10 C 26.261719 10 30 13.738281 30 18.328125 C 30 22.929688 26.261719 26.667969 21.671875 26.667969 Z M 90 83.332031 L 73.976562 83.332031 L 73.976562 59 C 73.976562 53.195312 73.867188 45.734375 65.648438 45.734375 C 57.304688 45.734375 56.019531 52.054688 56.019531 58.578125 L 56.019531 83.332031 L 40 83.332031 L 40 33.296875 L 55.378906 33.296875 L 55.378906 40.132812 L 55.597656 40.132812 C 57.738281 36.199219 62.964844 32.054688 70.765625 32.054688 C 87 32.054688 90 42.417969 90 55.890625 Z M 90 83.332031 "/>
</g>
</svg>
